<?xml version="1.0" encoding="utf-8"?>
<!-- Generator: Adobe Illustrator 25.4.0, SVG Export Plug-In . SVG Version: 6.00 Build 0)  -->
<svg version="1.1" id="Layer_1" xmlns="http://www.w3.org/2000/svg" xmlns:xlink="http://www.w3.org/1999/xlink" x="0px" y="0px"
	 viewBox="0 0 500 500" style="enable-background:new 0 0 500 500;" xml:space="preserve">
<style type="text/css">
	.st0{fill:#652C90;}
	.st1{fill:#991B1E;}
	.st2{fill:#186734;}
	.st3{fill:#243E90;}
	.st4{fill:#9FC9EB;}
	.st5{fill:#99CC99;}
	.st6{fill:#F499C1;}
	.st7{fill:#FFCC67;}
	.st8{fill:#35363C;}
</style>
<g id="XMLID_00000044159010739163926660000002379286398929530771_">
	<g id="XMLID_00000132772517913455425510000009134998818659588227_">
		<g id="XMLID_00000159429514285643162670000000433963494018874755_">
			<path id="XMLID_00000083076415328011869790000005439857726026729916_" class="st0" d="M250.32-0.19
				c-35.78,0-69.73,7.65-100.5,21.18c34.3,2.21,67.69,9.06,99.28,20.73c32.28-11.93,66.44-18.79,101.52-20.83
				C319.9,7.42,286.02-0.19,250.32-0.19z"/>
			<path id="XMLID_00000178202603922312724930000016846362010123535294_" class="st1" d="M20.34,347.89
				c2.29-33.88,9.14-66.86,20.68-98.08c-11.54-31.22-18.38-64.2-20.68-98.08C7.47,181.85,0.32,214.99,0.32,249.81
				S7.47,317.77,20.34,347.89z"/>
			<path id="XMLID_00000006700560609134421230000017460114490931042485_" class="st2" d="M149.81,478.63
				c30.78,13.54,64.73,21.19,100.51,21.19c35.7,0,69.58-7.6,100.3-21.09c-35.08-2.04-69.25-8.9-101.53-20.83
				C217.51,469.57,184.11,476.42,149.81,478.63z"/>
			<path id="XMLID_00000129923469364210125980000005040300138183290274_" class="st3" d="M457.18,249.81
				c12.06,32.64,18.94,67.22,20.88,102.73c14.17-31.37,22.26-66.07,22.26-102.73s-8.08-71.36-22.26-102.73
				C476.12,182.59,469.24,217.17,457.18,249.81z"/>
		</g>
		<path id="XMLID_00000106842306198362130560000018444455406381225891_" class="st4" d="M266.79,48.82
			c40.17,17.41,77.11,42.4,109,74.29c31.89,31.89,56.89,68.83,74.29,109c10.75-33.35,16.35-68.54,16.35-104.59
			c0-28.89-3.6-57.22-10.55-84.5c-27.28-6.96-55.62-10.55-84.51-10.55C335.33,32.47,300.14,38.07,266.79,48.82z"/>
		<path id="XMLID_00000088114103365478156730000005513106568593938325_" class="st5" d="M450.09,267.51
			c-17.41,40.17-42.4,77.11-74.29,109c-31.89,31.89-68.83,56.89-109,74.29c33.35,10.75,68.54,16.35,104.59,16.35
			c28.89,0,57.22-3.6,84.51-10.55c6.96-27.28,10.55-55.61,10.55-84.5C466.44,336.04,460.84,300.86,450.09,267.51z"/>
		<path id="XMLID_00000021841626303208369180000007150943303021851798_" class="st6" d="M48.11,232.12
			c17.41-40.17,42.4-77.11,74.29-109c31.89-31.89,68.83-56.89,109-74.29c-33.35-10.75-68.54-16.35-104.59-16.35
			c-28.89,0-57.22,3.6-84.5,10.55c-6.96,27.28-10.55,55.62-10.55,84.5C31.76,163.58,37.36,198.77,48.11,232.12z"/>
		<path id="XMLID_00000080900012291451820530000009674029880275874701_" class="st7" d="M231.4,450.8
			c-40.17-17.41-77.11-42.4-109-74.29s-56.89-68.83-74.29-109c-10.75,33.35-16.35,68.54-16.35,104.59c0,28.89,3.6,57.22,10.55,84.5
			c27.28,6.96,55.61,10.55,84.5,10.55C162.87,467.15,198.05,461.55,231.4,450.8z"/>
	</g>
	<g>
		<g>
			<path class="st8" d="M71.23,202.9h21.58v95.87H71.23V202.9z"/>
			<path class="st8" d="M162.46,298.77c-1.94-3.12-4.23-6.49-6.87-10.11s-5.48-7.28-8.52-10.96c-3.05-3.68-6.23-7.21-9.56-10.59
				c-3.33-3.38-6.66-6.36-9.98-8.95v40.6h-21.58V202.9h21.58v36.03c5.55-5.83,11.19-11.92,16.91-18.29
				c5.72-6.36,11.01-12.28,15.86-17.75h25.61c-6.52,7.77-13.09,15.24-19.69,22.41c-6.6,7.17-13.55,14.39-20.84,21.65
				c7.67,6.4,15.07,13.99,22.19,22.77c7.12,8.78,13.97,18.46,20.55,29.04H162.46z"/>
			<path class="st8" d="M191.67,202.9h21.58v95.87h-21.58V202.9z"/>
			<path class="st8" d="M273.16,219.5c-10.05,0-17.32,2.79-21.79,8.37c-4.47,5.58-6.71,13.21-6.71,22.9c0,4.7,0.55,8.97,1.66,12.8
				c1.11,3.83,2.77,7.12,4.98,9.89c2.21,2.77,4.98,4.91,8.3,6.43c3.32,1.52,7.2,2.28,11.62,2.28c2.4,0,4.45-0.04,6.16-0.14
				c1.7-0.09,3.2-0.28,4.5-0.55v-33.34h21.58v47.45c-2.58,1.02-6.73,2.1-12.45,3.25s-12.77,1.73-21.16,1.73
				c-7.19,0-13.72-1.11-19.58-3.32c-5.86-2.21-10.86-5.44-15.01-9.68c-4.15-4.24-7.36-9.45-9.61-15.63
				c-2.26-6.18-3.39-13.23-3.39-21.17c0-8.02,1.25-15.13,3.74-21.3c2.49-6.18,5.9-11.41,10.24-15.7c4.33-4.29,9.43-7.54,15.29-9.75
				c5.86-2.21,12.11-3.32,18.75-3.32c4.52,0,8.6,0.3,12.24,0.9c3.64,0.6,6.78,1.29,9.41,2.07c2.63,0.78,4.8,1.59,6.5,2.42
				c1.71,0.83,2.93,1.48,3.67,1.94l-6.23,17.29c-2.95-1.57-6.34-2.93-10.17-4.08C281.85,220.08,277.67,219.5,273.16,219.5z"/>
			<path class="st8" d="M379.86,298.77c-1.07-3.33-2.21-6.75-3.44-10.26c-1.23-3.51-2.45-7.01-3.67-10.49h-37.44
				c-1.21,3.5-2.43,7-3.64,10.51c-1.22,3.52-2.35,6.93-3.4,10.24h-22.41c3.61-10.33,7.03-19.87,10.27-28.64
				c3.24-8.76,6.4-17.02,9.51-24.76c3.1-7.75,6.15-15.1,9.16-22.07c3.01-6.96,6.13-13.76,9.37-20.41h20.46
				c3.15,6.64,6.25,13.44,9.31,20.41c3.06,6.96,6.14,14.32,9.24,22.07c3.1,7.75,6.28,16,9.52,24.76
				c3.24,8.76,6.67,18.31,10.28,28.64H379.86z M353.93,224.62c-0.48,1.39-1.19,3.29-2.11,5.68c-0.93,2.4-1.98,5.17-3.17,8.31
				c-1.19,3.14-2.51,6.6-3.97,10.38c-1.46,3.78-2.95,7.74-4.46,11.88h27.42c-1.47-4.16-2.89-8.13-4.26-11.92s-2.68-7.25-3.92-10.39
				c-1.24-3.14-2.32-5.91-3.26-8.3C355.26,227.86,354.5,225.98,353.93,224.62z"/>
			<path class="st8" d="M406.46,202.9h21.58v95.87h-21.58V202.9z"/>
		</g>
	</g>
</g>
</svg>
